<svg width="532" height="62" viewBox="0 0 532 62" xmlns="http://www.w3.org/2000/svg"><title>Brottsplatskartan</title><defs><linearGradient x1="4.41%" y1="100%" x2="96.759%" y2="100%" id="a"><stop stop-color="#DB3A2F" offset="0%"/><stop stop-color="#4A598B" offset="48.774%"/><stop stop-color="#1A64AA" offset="100%"/></linearGradient></defs><path d="M20.813 3.5c4.75 0 8.463 1.026 11.14 3.078 2.677 2.052 4.016 5.13 4.016 9.235 0 2.02-.64 3.828-1.922 5.421-1.281 1.594-2.974 2.776-5.078 3.547 2.729.584 4.885 1.927 6.468 4.032 1.584 2.104 2.376 4.552 2.376 7.343 0 4.167-1.355 7.35-4.063 9.547-2.708 2.198-6.375 3.297-11 3.297H.875v-3.938l5.094-.874V8.343L.875 7.469V3.5h19.937zm-8.688 24.156v16.532H22.75c2.813 0 4.995-.693 6.547-2.079 1.552-1.385 2.328-3.349 2.328-5.89 0-2.667-.651-4.76-1.953-6.282-1.302-1.52-3.297-2.28-5.985-2.28H12.126zm0-4.812h10.281c2.209-.063 3.995-.719 5.36-1.969 1.364-1.25 2.047-2.98 2.047-5.188 0-2.458-.771-4.296-2.313-5.515-1.542-1.219-3.77-1.828-6.688-1.828h-8.687v14.5zm31.344-3.688v-3.968h10.593l.594 4.906c.959-1.73 2.14-3.084 3.547-4.063 1.406-.979 3.016-1.468 4.828-1.468.48 0 .974.036 1.485.109.51.073.9.15 1.171.234l-.812 5.719-3.5-.188c-1.625 0-2.99.38-4.094 1.141-1.104.76-1.958 1.828-2.562 3.203v19.407l5.093.874V49H43.47v-3.938l5.093-.874V20.03l-5.093-.875zm25.875 12.625c0-5 1.354-9.12 4.062-12.36 2.709-3.239 6.386-4.858 11.031-4.858 4.667 0 8.36 1.614 11.079 4.843 2.718 3.23 4.078 7.354 4.078 12.375v.688c0 5.041-1.354 9.166-4.063 12.375-2.708 3.208-6.385 4.812-11.031 4.812-4.688 0-8.385-1.61-11.094-4.828-2.708-3.219-4.062-7.338-4.062-12.36v-.687zm6.156.688c0 3.583.755 6.541 2.266 8.875 1.51 2.333 3.755 3.5 6.734 3.5 2.917 0 5.135-1.167 6.656-3.5 1.521-2.334 2.281-5.292 2.281-8.875v-.688c0-3.541-.76-6.49-2.28-8.843-1.522-2.355-3.761-3.532-6.72-3.532-2.958 0-5.187 1.177-6.687 3.532-1.5 2.354-2.25 5.302-2.25 8.843v.688zM115.969 7.03v8.157h6.406v4.562h-6.406v20.531c0 1.584.328 2.698.984 3.344.656.646 1.526.969 2.61.969.541 0 1.15-.047 1.828-.14a20.66 20.66 0 0 0 1.703-.298l.844 4.219c-.584.375-1.438.682-2.563.922-1.125.24-2.25.36-3.375.36-2.5 0-4.49-.756-5.969-2.266s-2.219-3.88-2.219-7.11V19.75h-5.343v-4.563h5.344V7.031h6.156zm23.437 0v8.157h6.406v4.562h-6.406v20.531c0 1.584.328 2.698.985 3.344.656.646 1.526.969 2.609.969.542 0 1.151-.047 1.828-.14a20.66 20.66 0 0 0 1.703-.298l.844 4.219c-.583.375-1.437.682-2.563.922-1.125.24-2.25.36-3.375.36-2.5 0-4.49-.756-5.968-2.266-1.48-1.51-2.219-3.88-2.219-7.11V19.75h-5.344v-4.563h5.344V7.031h6.156zm38.563 18.782h-4.625l-1-4.063c-.75-.708-1.693-1.276-2.828-1.703-1.136-.427-2.422-.64-3.86-.64-2.187 0-3.812.478-4.875 1.437-1.062.958-1.594 2.114-1.594 3.468 0 1.334.47 2.386 1.407 3.157.937.77 2.843 1.458 5.719 2.062 4.27.917 7.447 2.162 9.53 3.735 2.084 1.573 3.126 3.682 3.126 6.328 0 3-1.214 5.427-3.64 7.281-2.428 1.854-5.6 2.781-9.517 2.781-2.562 0-4.864-.297-6.906-.89-2.041-.594-3.864-1.453-5.469-2.578l-.03-7.72h4.624L159.187 43c.709.646 1.672 1.115 2.891 1.406 1.219.292 2.464.438 3.734.438 2.188 0 3.902-.443 5.141-1.328 1.24-.886 1.86-2.047 1.86-3.485 0-1.354-.516-2.468-1.547-3.343-1.032-.876-2.985-1.636-5.86-2.282-4.104-.896-7.198-2.114-9.281-3.656-2.083-1.542-3.125-3.625-3.125-6.25 0-2.75 1.172-5.094 3.516-7.031 2.343-1.938 5.39-2.907 9.14-2.907 2.563 0 4.865.334 6.906 1 2.042.667 3.74 1.594 5.094 2.782l.313 7.468zm6 32.218l5.094-.875V20.031l-5.094-.875v-3.968h10.375l.562 4.124c1.125-1.541 2.495-2.718 4.11-3.53 1.614-.813 3.484-1.22 5.609-1.22 4.188 0 7.443 1.662 9.766 4.985 2.323 3.323 3.484 7.713 3.484 13.172v.656c0 4.875-1.167 8.807-3.5 11.797s-5.552 4.484-9.656 4.484c-2.084 0-3.912-.349-5.485-1.047a10.609 10.609 0 0 1-4.015-3.109v11.656l5.094.875V62h-16.344v-3.969zm27.719-25.312c0-3.854-.75-7.01-2.25-9.469-1.5-2.458-3.73-3.688-6.688-3.688-1.75 0-3.25.396-4.5 1.188-1.25.792-2.26 1.875-3.031 3.25v16.469c.77 1.396 1.776 2.474 3.015 3.234 1.24.76 2.766 1.14 4.578 1.14 2.917 0 5.125-1.062 6.625-3.187s2.25-4.885 2.25-8.281v-.656zm10.625-28.5V.25h11.25v43.938l5.093.874V49h-16.344v-3.938l5.094-.874V5.093l-5.094-.875zM265.375 49a42.33 42.33 0 0 1-.438-2.469 25.916 25.916 0 0 1-.218-2.187c-1.188 1.52-2.672 2.786-4.453 3.797a11.376 11.376 0 0 1-5.704 1.515c-3.52 0-6.197-.86-8.03-2.578-1.834-1.719-2.75-4.14-2.75-7.266 0-3.208 1.296-5.682 3.89-7.421 2.594-1.74 6.15-2.61 10.672-2.61h6.344v-3.937c0-1.98-.625-3.547-1.875-4.703-1.25-1.157-2.99-1.735-5.22-1.735-1.54 0-2.9.198-4.077.594-1.177.396-2.13.937-2.86 1.625L250 25.188h-4.75v-6.563c1.542-1.23 3.406-2.214 5.594-2.953 2.187-.74 4.562-1.11 7.125-1.11 3.833 0 6.937.98 9.312 2.938 2.375 1.958 3.563 4.76 3.563 8.406v16.282c0 .437.005.864.015 1.28.01.417.037.834.079 1.25l2.5.344V49h-8.063zm-9.906-4.5c2.041 0 3.906-.49 5.594-1.469 1.687-.979 2.895-2.156 3.625-3.531v-5.563h-6.563c-2.52 0-4.516.584-5.984 1.75-1.47 1.167-2.203 2.584-2.203 4.25 0 1.48.458 2.61 1.375 3.391.916.781 2.302 1.172 4.156 1.172zm33.844-37.469v8.157h6.406v4.562h-6.406v20.531c0 1.584.328 2.698.984 3.344.656.646 1.526.969 2.61.969.54 0 1.15-.047 1.827-.14a20.66 20.66 0 0 0 1.704-.298l.843 4.219c-.583.375-1.437.682-2.562.922-1.125.24-2.25.36-3.375.36-2.5 0-4.49-.756-5.969-2.266-1.48-1.51-2.219-3.88-2.219-7.11V19.75h-5.344v-4.563h5.344V7.031h6.156zm38.562 18.782h-4.625l-1-4.063c-.75-.708-1.693-1.276-2.828-1.703-1.136-.427-2.422-.64-3.86-.64-2.187 0-3.812.478-4.875 1.437-1.062.958-1.593 2.114-1.593 3.468 0 1.334.468 2.386 1.406 3.157.938.77 2.844 1.458 5.719 2.062 4.27.917 7.448 2.162 9.531 3.735s3.125 3.682 3.125 6.328c0 3-1.214 5.427-3.64 7.281-2.428 1.854-5.6 2.781-9.516 2.781-2.563 0-4.865-.297-6.906-.89-2.042-.594-3.865-1.453-5.47-2.578l-.03-7.72h4.625L309.094 43c.708.646 1.672 1.115 2.89 1.406 1.22.292 2.464.438 3.735.438 2.187 0 3.9-.443 5.14-1.328 1.24-.886 1.86-2.047 1.86-3.485 0-1.354-.516-2.468-1.547-3.343-1.031-.876-2.984-1.636-5.86-2.282-4.104-.896-7.197-2.114-9.28-3.656-2.084-1.542-3.126-3.625-3.126-6.25 0-2.75 1.172-5.094 3.516-7.031 2.344-1.938 5.39-2.907 9.14-2.907 2.563 0 4.865.334 6.907 1 2.041.667 3.74 1.594 5.094 2.782l.312 7.468zm5.906-21.594V.25h11.25V28.5h3.938l7.219-8.938-3.094-.406v-3.968h14.156v3.968l-4.125.813-8.906 10.625 10.844 13.718 3.843.75V49h-14.031v-3.938l3.156-.406-8.969-11.25h-4.03v10.782l5.093.874V49h-16.344v-3.938l5.094-.874V5.093l-5.094-.875zM395.594 49a42.33 42.33 0 0 1-.438-2.469 25.916 25.916 0 0 1-.219-2.187c-1.187 1.52-2.671 2.786-4.453 3.797a11.376 11.376 0 0 1-5.703 1.515c-3.52 0-6.198-.86-8.031-2.578-1.833-1.719-2.75-4.14-2.75-7.266 0-3.208 1.297-5.682 3.89-7.421 2.594-1.74 6.152-2.61 10.673-2.61h6.343v-3.937c0-1.98-.625-3.547-1.875-4.703-1.25-1.157-2.99-1.735-5.219-1.735-1.541 0-2.9.198-4.078.594-1.177.396-2.13.937-2.859 1.625l-.656 3.563h-4.75v-6.563c1.541-1.23 3.406-2.214 5.594-2.953 2.187-.74 4.562-1.11 7.125-1.11 3.833 0 6.937.98 9.312 2.938 2.375 1.958 3.563 4.76 3.563 8.406v16.282c0 .437.005.864.015 1.28.01.417.037.834.078 1.25l2.5.344V49h-8.062zm-9.906-4.5c2.041 0 3.906-.49 5.593-1.469 1.688-.979 2.896-2.156 3.625-3.531v-5.563h-6.562c-2.521 0-4.516.584-5.985 1.75-1.468 1.167-2.203 2.584-2.203 4.25 0 1.48.459 2.61 1.375 3.391.917.781 2.302 1.172 4.156 1.172zm23.093-25.344v-3.968h10.594l.594 4.906c.958-1.73 2.14-3.084 3.547-4.063 1.406-.979 3.015-1.468 4.828-1.468.479 0 .974.036 1.484.109.51.073.901.15 1.172.234l-.813 5.719-3.5-.188c-1.625 0-2.99.38-4.093 1.141-1.104.76-1.959 1.828-2.563 3.203v19.407l5.094.874V49h-16.344v-3.938l5.094-.874V20.03l-5.094-.875zM447 7.031v8.157h6.406v4.562H447v20.531c0 1.584.328 2.698.984 3.344.657.646 1.526.969 2.61.969.541 0 1.15-.047 1.828-.14a20.66 20.66 0 0 0 1.703-.298l.844 4.219c-.584.375-1.438.682-2.563.922-1.125.24-2.25.36-3.375.36-2.5 0-4.49-.756-5.969-2.266s-2.218-3.88-2.218-7.11V19.75H435.5v-4.563h5.344V7.031H447zM481.75 49a42.33 42.33 0 0 1-.438-2.469 25.916 25.916 0 0 1-.218-2.187c-1.188 1.52-2.672 2.786-4.453 3.797a11.376 11.376 0 0 1-5.704 1.515c-3.52 0-6.197-.86-8.03-2.578-1.834-1.719-2.75-4.14-2.75-7.266 0-3.208 1.296-5.682 3.89-7.421 2.594-1.74 6.15-2.61 10.672-2.61h6.344v-3.937c0-1.98-.625-3.547-1.875-4.703-1.25-1.157-2.99-1.735-5.22-1.735-1.54 0-2.9.198-4.077.594-1.177.396-2.13.937-2.86 1.625l-.656 3.563h-4.75v-6.563c1.542-1.23 3.406-2.214 5.594-2.953 2.187-.74 4.562-1.11 7.125-1.11 3.833 0 6.937.98 9.312 2.938 2.375 1.958 3.563 4.76 3.563 8.406v16.282c0 .437.005.864.015 1.28.01.417.037.834.079 1.25l2.5.344V49h-8.063zm-9.906-4.5c2.041 0 3.906-.49 5.594-1.469 1.687-.979 2.895-2.156 3.625-3.531v-5.563H474.5c-2.52 0-4.516.584-5.984 1.75-1.47 1.167-2.204 2.584-2.204 4.25 0 1.48.459 2.61 1.375 3.391.917.781 2.303 1.172 4.157 1.172zm22.187.563l5.094-.876V20.032l-5.094-.875v-3.968h10.594l.438 5.03c1.125-1.79 2.536-3.182 4.234-4.171 1.698-.99 3.63-1.485 5.797-1.485 3.646 0 6.468 1.068 8.468 3.204 2 2.135 3 5.432 3 9.89v16.532l5.094.874V49h-16.343v-3.938l5.093-.874V27.78c0-2.979-.588-5.093-1.765-6.343s-2.974-1.875-5.391-1.875c-1.77 0-3.339.427-4.703 1.28-1.365.855-2.453 2.022-3.266 3.5v19.845l5.094.874V49h-16.344v-3.938z" fill="url(#a)" fill-rule="evenodd"/></svg>
