<svg width="100px" height="100px" viewBox="0 0 100 100" version="1.1" xmlns="http://www.w3.org/2000/svg" xmlns:xlink="http://www.w3.org/1999/xlink">
    <defs>
        <radialGradient cx="50%" cy="50%" fx="50%" fy="50%" r="146.677003%" id="radialGradient-1">
            <stop stop-color="#BF1E15" stop-opacity="0.9" offset="0%"></stop>
            <stop stop-color="#FFFFFF" stop-opacity="0" offset="100%"></stop>
        </radialGradient>
    </defs>
    <g id="Page-1" stroke="none" stroke-width="1" fill="none" fill-rule="evenodd">
        <path d="M33.3305076,-1.3465924e-15 L66.6694924,1.3465924e-15 C78.259236,-7.82408963e-16 82.4619571,1.20673294 86.6989941,3.47272515 C90.9360312,5.73871735 94.2612826,9.06396882 96.5272749,13.3010059 C98.7932671,17.5380429 100,21.740764 100,33.3305076 L100,66.6694924 C100,78.259236 98.7932671,82.4619571 96.5272749,86.6989941 C94.2612826,90.9360312 90.9360312,94.2612826 86.6989941,96.5272749 C82.4619571,98.7932671 78.259236,100 66.6694924,100 L33.3305076,100 C21.740764,100 17.5380429,98.7932671 13.3010059,96.5272749 C9.06396882,94.2612826 5.73871735,90.9360312 3.47272515,86.6989941 C1.20673294,82.4619571 5.21605976e-16,78.259236 -8.97728267e-16,66.6694924 L8.97728267e-16,33.3305076 C-5.21605976e-16,21.740764 1.20673294,17.5380429 3.47272515,13.3010059 C5.73871735,9.06396882 9.06396882,5.73871735 13.3010059,3.47272515 C17.5380429,1.20673294 21.740764,7.82408963e-16 33.3305076,-1.3465924e-15 Z" id="Rectangle" fill="url(#radialGradient-1)"></path>
    </g>
</svg>
