<svg xmlns="http://www.w3.org/2000/svg" viewBox="0 0 64 80" x="0px" y="0px"><title>_</title><g><path d="M58.12134,20.01544,44.06244,5.95654a3,3,0,0,0-2.12134-.87866H22.0589a3,3,0,0,0-2.12134.87866L5.87866,20.01544A3,3,0,0,0,5,22.13678V42.019a3,3,0,0,0,.87866,2.12134l14.0589,14.0589a3.00023,3.00023,0,0,0,2.12134.87866H41.9411a3.00023,3.00023,0,0,0,2.12134-.87866l14.0589-14.0589A3,3,0,0,0,59,42.019V22.13678A3,3,0,0,0,58.12134,20.01544ZM56.5,41.31934a1.98633,1.98633,0,0,1-.58594,1.41406L42.7334,55.91455A2.01392,2.01392,0,0,1,41.31934,56.5H22.68066a2.01392,2.01392,0,0,1-1.41406-.58545L8.08594,42.7334A1.98633,1.98633,0,0,1,7.5,41.31934V22.68066a1.98633,1.98633,0,0,1,.58594-1.41406L21.26563,8.08594A2.01229,2.01229,0,0,1,22.67969,7.5H41.32031a2.01233,2.01233,0,0,1,1.41407.58594L55.91406,21.2666A1.98633,1.98633,0,0,1,56.5,22.68066Z"/><path d="M37.61719,33.16162V19.61914a1.0728,1.0728,0,0,0-2.14258,0v11.0166a1,1,0,0,1-2,0V16.14307a1.19,1.19,0,0,0-2.37988,0V30.97949a1,1,0,0,1-2,0V18.62109a1.07585,1.07585,0,1,0-2.1416,0V32.66455a1,1,0,0,1-2,0V24.34229c0-1.10749-1.90625-1.14515-1.90625,0v15.6206a8.68715,8.68715,0,0,0,8.67773,8.67725,10.07,10.07,0,0,0,9.998-9.24024,25.473,25.473,0,0,1,3.44043-9.6709,5.50961,5.50961,0,0,0,.79-1.56347c-.55079-.38233-1.75782-.1543-2.79688.87207a42.53658,42.53658,0,0,0-3.71484,4.68994A1.00106,1.00106,0,0,1,37.61719,33.16162Z"/><path d="M22.67969,9.5,9.5,22.68066V41.31934L22.68066,54.50049V54.5H41.31934L54.5,41.31934V22.68066L41.32031,9.5ZM47.09375,26.53809c1.75574,1.26544.39923,3.21582-.21387,4.21582a23.7342,23.7342,0,0,0-3.165,8.82031A12.074,12.074,0,0,1,31.72461,50.64014,10.68944,10.68944,0,0,1,21.04688,39.96289V24.34229A2.91017,2.91017,0,0,1,24.95313,21.637V18.62109a3.08033,3.08033,0,0,1,4.19061-2.96258,3.18519,3.18519,0,0,1,6.33087.48456v.65161a3.0553,3.0553,0,0,1,4.14258,2.82446V30.10205A26.66758,26.66758,0,0,1,41.75,27.61475C43.4248,25.9624,45.67188,25.51074,47.09375,26.53809Z"/></g><text x="0" y="79" fill="#000000" font-size="5px" font-weight="bold" font-family="'Helvetica Neue', Helvetica, Arial-Unicode, Arial, Sans-serif">Created by Andy Horvath</text><text x="0" y="84" fill="#000000" font-size="5px" font-weight="bold" font-family="'Helvetica Neue', Helvetica, Arial-Unicode, Arial, Sans-serif">from the Noun Project</text></svg>