<svg xmlns="http://www.w3.org/2000/svg" data-name="Camada 1" viewBox="0 0 32 40" x="0px" y="0px"><title>Prancheta 627</title><path d="M11.62326,2a3.56385,3.56385,0,1,0,3.564,3.564A3.564,3.564,0,0,0,11.62326,2Z"/><path d="M6.78561,14.21826a1.01571,1.01571,0,0,1,.87549.98779l.00879,13.78614A1.01253,1.01253,0,0,0,8.6882,30h.3562a1.01685,1.01685,0,0,0,1.0083-.92651l.83472-8.96H12.2546l.93921,8.947a1.01662,1.01662,0,0,0,1.00806.92651h.3562a1.01253,1.01253,0,0,0,1.01831-1.00781l.009-13.7732a1.01615,1.01615,0,0,1,.87574-.98779,5.66424,5.66424,0,0,0,4.7854-5.5896V6.14429A1.0147,1.0147,0,0,0,20.22848,5.126h-.8147a1.0211,1.0211,0,0,0-1.01806,1.01831V8.62866a2.79833,2.79833,0,0,1-2.80005,2.79981H7.65109a2.79833,2.79833,0,0,1-2.8-2.79981V6.14429A1.02132,1.02132,0,0,0,3.83273,5.126H3.01828A1.01491,1.01491,0,0,0,2,6.14429V8.62866A5.66424,5.66424,0,0,0,6.78561,14.21826Z"/><path d="M29.97409,17.3457l-.66846-2.00561A.49756.49756,0,0,0,28.83371,15H20.68942a.49706.49706,0,0,0-.49707.49707v2.00586A.4969.4969,0,0,0,20.68942,18h3.50293a1.00005,1.00005,0,0,1,1,1v2.531a.469.469,0,0,0,.469.469h2.88013a.46915.46915,0,0,0,.44507-.61743L28.19235,18h1.3103A.4969.4969,0,0,0,29.97409,17.3457Z"/><text x="0" y="47" fill="#000000" font-size="5px" font-weight="bold" font-family="'Helvetica Neue', Helvetica, Arial-Unicode, Arial, Sans-serif">Created by Luiz Carvalho</text><text x="0" y="52" fill="#000000" font-size="5px" font-weight="bold" font-family="'Helvetica Neue', Helvetica, Arial-Unicode, Arial, Sans-serif">from the Noun Project</text></svg>