<svg xmlns="http://www.w3.org/2000/svg" data-name="Layer 1" viewBox="0 0 64 80" x="0px" y="0px"><path d="m60,4H22c-.55,0-1,.45-1,1v21.22c0,2.45.69,4.82,1.99,6.89v4.89c0,1.15-.32,2.18-.97,3.16-.62.95-.95,1.94-1,2.94-.42.05-.83.12-1.22.21.13-.42.2-.85.2-1.3v-3c0-3.36-3.73-6-8.5-6s-8.5,2.64-8.5,6v3c0,3.36,3.73,6,8.5,6,.95,0,1.85-.11,2.7-.3-.13.42-.2.85-.2,1.3v4c0,3.36,3.73,6,8.5,6s8.5-2.64,8.5-6v-4h27c1.65,0,3-1.35,3-3v-3c0-2.02-.38-3.99-1.13-5.85-.58-1.45-.87-2.98-.87-4.53v-4.06c0-1-.11-2.01-.32-3,1.52-2.99,2.32-6.35,2.32-9.72V5c0-.55-.45-1-1-1Zm-1,2v2H23v-2h36Zm0,4v1H23v-1h36ZM12.5,45.96c2.08-.16,3.9-.84,5.23-1.84-.71,1.45-2.76,2.59-5.23,2.83v-.99Zm5.5-5.96c0,1.96-2.43,3.64-5.5,3.95v-7.89c3.07.31,5.5,1.99,5.5,3.95Zm-7.5-3.95v7.89c-3.07-.31-5.5-1.99-5.5-3.95s2.43-3.64,5.5-3.95Zm-5.23,8.06c1.33,1.01,3.15,1.68,5.23,1.84v.99c-2.47-.25-4.52-1.38-5.23-2.83Zm17.23,1.89c2.27,0,4.3.76,5.47,1.88l-11.94,2.44c-.01-.11-.03-.21-.03-.32,0-2.17,2.98-4,6.5-4Zm6.5,4c0,2.17-2.98,4-6.5,4-2.25,0-4.27-.75-5.44-1.85l11.92-2.44c.01.1.02.19.02.29Zm-6.5,8c-3.52,0-6.5-1.83-6.5-4v-.1c1.55,1.29,3.86,2.1,6.5,2.1s4.95-.81,6.5-2.1v.1c0,2.17-2.98,4-6.5,4Zm36.5-14v3c0,.55-.45,1-1,1h-27.48c-1.09-2.24-3.97-3.83-7.49-3.98.07-.58.28-1.18.66-1.77.85-1.29,1.29-2.72,1.29-4.25v-2s1.96,2.79,1.96,2.79l1.64-1.15-3.59-5.12c-.34-.49-.64-1-.89-1.53h4.8c.96,0,1.91-.39,2.59-1.07.42-.42,1.09-.52,1.61-.26.44.22.91.34,1.38.35l11.31.47c.69.03,1.38-.24,1.87-.73.19-.19.51-.19.7,0,.56.56,1.31.89,2.1.92l6.55.27v2.66c0,1.81.34,3.58,1.01,5.27.66,1.63.99,3.35.99,5.11Zm-2.26-18.04c-.12.22-.15.47-.09.71.18.75.28,1.52.31,2.29l-6.43-.27c-.29-.01-.56-.13-.77-.34-.97-.97-2.55-.97-3.53,0-.1.1-.22.15-.37.14l-11.33-.47c-.18,0-.37-.06-.55-.15-1.27-.64-2.9-.38-3.91.64-.31.31-.74.49-1.18.49h-5.53c-.24-.9-.36-1.83-.36-2.78v-13.22h36v3.84c0,3.18-.78,6.33-2.26,9.12Z"/><circle cx="36" cy="36" r="1"/><circle cx="45" cy="34" r="1"/><circle cx="54" cy="38" r="1"/><circle cx="33" cy="33" r=".5"/><circle cx="40.5" cy="33.5" r=".5"/><circle cx="29.5" cy="34.5" r=".5"/><circle cx="39.5" cy="38.5" r=".5"/><circle cx="32.5" cy="36.5" r=".5"/><circle cx="46.5" cy="38.5" r=".5"/><circle cx="50.5" cy="35.5" r=".5"/><circle cx="53.5" cy="34.5" r=".5"/><text x="0" y="79" fill="#000000" font-size="5px" font-weight="bold" font-family="'Helvetica Neue', Helvetica, Arial-Unicode, Arial, Sans-serif">Created by Natthapong Mueangmoon</text><text x="0" y="84" fill="#000000" font-size="5px" font-weight="bold" font-family="'Helvetica Neue', Helvetica, Arial-Unicode, Arial, Sans-serif">from the Noun Project</text></svg>