<svg xmlns="http://www.w3.org/2000/svg" xmlns:xlink="http://www.w3.org/1999/xlink" version="1.1" x="0px" y="0px" viewBox="0 0 100 125" enable-background="new 0 0 100 100" xml:space="preserve"><path d="M47.782,41.225L24.458,19.934l-10.37,9.288v-4.319h-5.54v9.281l-7.625,6.83l3.594,4.011l4.032-3.609v2.006h0.021  l0.004,25.188l6.757-0.001V54.039h6.302v14.568h18.479L40.11,41.513l4.039,3.689L47.782,41.225z M21.631,47.2h-5.948v-6.135h5.948  V47.2z M33.312,47.2h-5.948v-6.135h5.948V47.2z"/><polygon points="36.905,22.7 34.732,21.947 38.926,9.832 41.099,10.584 36.905,22.7 "/><polygon points="44.133,26.294 42.562,24.615 54.677,13.283 56.248,14.963 44.133,26.294 "/><polygon points="47.825,32.743 46.888,30.643 59.604,24.967 60.541,27.067 47.825,32.743 "/><path d="M95.057,43.033c2.938-0.589,4.853-3.482,4.257-6.455c-0.598-2.979-3.474-4.905-6.416-4.316  c-2.944,0.59-4.85,3.472-4.253,6.452C89.238,41.685,92.11,43.622,95.057,43.033"/><path d="M63.264,38.444c-7.194,2.349-10.124,7.207-8.703,11.555c1.42,4.349,6.492,6.026,13.687,3.677  c7.194-2.354,16.33-10.562,15.566-12.9C82.969,38.192,70.458,36.089,63.264,38.444z"/><path d="M97.942,48.823c-1.321-0.674-2.942-0.152-3.618,1.169l-1.116,2.181l-1.236-6.744c-0.109-0.595-0.833-1.522-0.833-1.522  c-0.761-0.816-1.72-1.228-2.867-1.228c-1.091,0-2.02,0.412-2.785,1.228L73.607,55.705c-0.491,0.494-3.939,3.458-4.503,6.811  l-1.88,11.134L56.95,72.218c-1.678-0.184-3.424,0.586-3.658,2.201c-0.458,3.146,3.354,3.598,3.354,3.598s11.371,1.821,14.144,1.821  c2.176-0.127,3.295-2.002,3.527-3.052c0.722-3.269,2.212-9.392,2.212-9.392s4.901,4.901,6.755,7.382l2.456,13.377  c0.063,0.331,0.158,0.645,0.279,0.937H59.411v2.165h29.423v-0.016c0.219,0.006,0.446-0.012,0.679-0.057  c2.008-0.381,2.57-2.019,2.32-4.081l-1.914-13.171c-0.076-0.927-0.32-2.479-0.994-3.436c0,0-4.503-5.818-6.095-7.797l5.773-5.818  l0.744,4.057c0.208,1.133,1.114,2.008,2.254,2.175c0.132,0.019,0.263,0.029,0.392,0.029c0.998,0,1.928-0.557,2.394-1.465  l4.725-9.233C99.787,51.12,99.265,49.5,97.942,48.823z"/><text x="0" y="115" fill="#000000" font-size="5px" font-weight="bold" font-family="'Helvetica Neue', Helvetica, Arial-Unicode, Arial, Sans-serif">Created by Luis Prado</text><text x="0" y="120" fill="#000000" font-size="5px" font-weight="bold" font-family="'Helvetica Neue', Helvetica, Arial-Unicode, Arial, Sans-serif">from the Noun Project</text></svg>