<svg xmlns="http://www.w3.org/2000/svg" xmlns:xlink="http://www.w3.org/1999/xlink" version="1.1" x="0px" y="0px" viewBox="0 0 100 125" style="enable-background:new 0 0 100 100;" xml:space="preserve"><path d="M85.6,85.7l6-0.4l-1-15.1c0-0.2,0-0.5-0.1-0.7c-0.4-3.3-2.4-6.3-5.4-8.2L85,61.2c-1-0.6-2-1.1-3.1-1.5l-2.5-5l4-0.3  l-0.3-4.2l-5.7,0.4l-4.5-9c-1-2.4-3.5-3.9-6.1-3.7L48,39.3c-0.5-0.9-1-2.1-1.1-3.4c3.5,1,7.7,1.3,9.9-0.8c2.4-2.3,2.3-5,1-6.6  c-2.4-3.1-7.3-2.4-11-0.1c-1,0.6-1.8,1.3-2.4,2.1c-3.6-1.9-7-5.1-7.2-9.2C36.7,12.9,52.4,10,52.6,10l-0.7-4.1  C51.1,6,32.4,9.3,33.1,21.5c0.3,6,5,10.4,9.7,12.8c-0.3,1.9,0.2,3.8,0.8,5.3l-15.9,1.1c-2.6,0.2-4.8,2-5.5,4.5l-3.3,9.6L13,55.2  l0.3,4.2l4.1-0.3l-1.8,5.3c-1,0.5-2,1.2-2.9,2c-2.7,2.3-4.2,5.5-4.2,8.9c0,0.2,0,0.5,0,0.7l1,15.1l6-0.4c0.2,2,1.9,3.5,3.9,3.5  c0.1,0,0.2,0,0.3,0l6.5-0.4c2.1-0.1,3.7-1.9,3.6-4l41.7-2.9l0.3,3.8c0.1,2.1,1.9,3.6,3.9,3.6c0.1,0,0.2,0,0.3,0l6.5-0.4  c2.2-0.1,3.8-2,3.6-4.2L85.6,85.7z M49.1,31.9c2.9-1.8,5-1.5,5.5-0.9c0.1,0.1-0.1,0.6-0.6,1c-0.5,0.5-2.5,0.7-5.2,0.1  C48.9,32,49,32,49.1,31.9z M30.9,57.7c-0.1-1,0.7-1.8,1.6-1.9l8-0.5c0.9-0.1,1.8,0.7,1.9,1.6l0.3,4.1l-3.4,0.2l-8.1,0.6L30.9,57.7z   M54.3,56.1c0-0.5,0.1-0.9,0.4-1.3c0.3-0.3,0.7-0.6,1.2-0.6l8-0.5c0.5,0,0.9,0.1,1.3,0.4c0.3,0.3,0.6,0.7,0.6,1.2l0.3,4.1l-11.4,0.8  L54.3,56.1z M74.7,65.4c0.3-0.4,0.8-0.6,1.2-0.6c0,0,0.1,0,0.1,0c0.9,0,1.8,0.7,1.8,1.7c0,0.5-0.1,1-0.4,1.3  c-0.3,0.4-0.8,0.6-1.2,0.6c-1,0.1-1.9-0.7-1.9-1.7C74.2,66.2,74.4,65.7,74.7,65.4z M26.1,46.5l0-0.2c0.2-0.8,0.9-1.4,1.8-1.5  l39.2-2.7c0,0,0.1,0,0.1,0c0.8,0,1.5,0.5,1.8,1.2l7.6,15.3l-1.6,0.1c0,0,0,0,0,0l-4.9,0.3L69.9,55c-0.1-1.6-0.8-3-2-4  c-1.2-1-2.7-1.5-4.3-1.4l-8,0.5c-1.6,0.1-3,0.8-4,2c-1,1.2-1.5,2.7-1.4,4.3l0.3,4.1l-3.6,0.3l-0.3-4.1c-0.2-3.2-3-5.7-6.3-5.5  l-8,0.5c-3.2,0.2-5.7,3-5.5,6.3l0.3,4.1l-6.5,0.4L26.1,46.5z M15.3,69.5L15.3,69.5c2-1.7,4.5-2.7,7.2-2.9L59.3,64l11.8-0.8  c-0.7,1.1-1.1,2.4-1,3.8c0.2,3.2,2.9,5.6,6,5.6c0.1,0,0.3,0,0.4,0c1.6-0.1,3.1-0.8,4.1-2c1.1-1.2,1.6-2.8,1.5-4.3v0  c-0.1-0.7-0.2-1.4-0.5-2.1c0.5,0.2,0.9,0.5,1.4,0.7l0,0c1.9,1.2,3.2,3.1,3.4,5.2c0,0.2,0,0.3,0,0.5l0.2,3.2L67.1,75  c0.1-0.6,0.2-1.2,0.2-1.8c-0.2-3.3-3.1-5.8-6.4-5.6l-23.4,1.6c-3.3,0.2-5.8,3.1-5.6,6.4c0,0.6,0.2,1.2,0.4,1.8l-4.2,0.3  c0.1-0.6,0.2-1.2,0.2-1.8c-0.1-1.6-0.8-3.1-2-4.1c-1.2-1.1-2.8-1.6-4.3-1.5c-1.6,0.1-3.1,0.8-4.1,2c-1.1,1.2-1.6,2.7-1.5,4.3  c0,0.6,0.2,1.2,0.4,1.8l-3.9,0.3l-0.2-3.2c0-0.2,0-0.3,0-0.5C12.6,73,13.6,71,15.3,69.5z M52.2,76L38,77c-0.5,0-1-0.1-1.3-0.4  c-0.4-0.3-0.6-0.8-0.6-1.2c-0.1-1,0.7-1.9,1.7-1.9l23.4-1.6c0,0,0.1,0,0.1,0c0.9,0,1.8,0.7,1.8,1.7c0,0.5-0.1,1-0.4,1.3  c-0.3,0.4-0.8,0.6-1.2,0.6L52.2,76z M22.4,78.1c-0.5,0-1-0.1-1.3-0.4c-0.4-0.3-0.6-0.8-0.6-1.2c0-0.5,0.1-1,0.4-1.3  c0.3-0.4,0.8-0.6,1.2-0.6c0,0,0.1,0,0.1,0c0.4,0,0.9,0.2,1.2,0.4c0.4,0.3,0.6,0.8,0.6,1.2c0,0.5-0.1,1-0.4,1.3  C23.4,77.8,22.9,78,22.4,78.1L22.4,78.1z M13.1,82.9l9.6-0.7c0,0,0,0,0,0c0,0,0,0,0,0l29.6-2l9.4-0.6c0,0,0,0,0,0l25.2-1.7l0.3,3.6  l-73.8,5.1L13.1,82.9z"/><text x="0" y="115" fill="#000000" font-size="5px" font-weight="bold" font-family="'Helvetica Neue', Helvetica, Arial-Unicode, Arial, Sans-serif">Created by Clément Payot</text><text x="0" y="120" fill="#000000" font-size="5px" font-weight="bold" font-family="'Helvetica Neue', Helvetica, Arial-Unicode, Arial, Sans-serif">from the Noun Project</text></svg>