<svg xmlns="http://www.w3.org/2000/svg" xmlns:xlink="http://www.w3.org/1999/xlink" version="1.1" x="0px" y="0px" viewBox="0 0 100 125" enable-background="new 0 0 100 100" xml:space="preserve"><g><g><path fill="#000000" d="M50,6c24.262,0,44,19.739,44,44S74.262,94,50,94C25.739,94,6,74.262,6,50S25.739,6,50,6 M50,0    C22.386,0,0,22.385,0,50c0,27.612,22.386,50,50,50c27.613,0,50-22.388,50-50C100,22.385,77.613,0,50,0L50,0z"/></g></g><ellipse cx="64.241" cy="41.548" rx="5.759" ry="7.452"/><ellipse cx="35.759" cy="41.548" rx="5.759" ry="7.452"/><path d="M33.915,74l-3.903-2.602c0.285-0.426,7.102-10.425,20.366-10.425c12.521,0,19.338,9.893,19.622,10.286L66.194,74  c-0.227-0.309-5.754-8.336-15.816-8.336C39.597,65.664,33.97,73.917,33.915,74z"/><g><path fill="#000000" d="M35.564,55.42c-6.091,0-9.425-4.533-9.564-4.726l3.382-2.435c0.083,0.109,2.27,2.993,6.182,2.993   c4.167,0,6.365-3.12,6.457-3.253l3.459,2.324C45.341,50.532,42.009,55.42,35.564,55.42z"/></g><text x="0" y="115" fill="#000000" font-size="5px" font-weight="bold" font-family="'Helvetica Neue', Helvetica, Arial-Unicode, Arial, Sans-serif">Created by Dan Nemmers</text><text x="0" y="120" fill="#000000" font-size="5px" font-weight="bold" font-family="'Helvetica Neue', Helvetica, Arial-Unicode, Arial, Sans-serif">from the Noun Project</text></svg>