<svg xmlns="http://www.w3.org/2000/svg" xmlns:xlink="http://www.w3.org/1999/xlink" version="1.1" x="0px" y="0px" viewBox="0 0 100 125" enable-background="new 0 0 100 100" xml:space="preserve"><path d="M94.276,26.751h-2.533v-0.996c0-0.399-0.325-0.724-0.724-0.724h-0.746c-0.18-1.627-1.558-2.895-3.234-2.895h-1.447  c-0.399,0-0.724,0.325-0.724,0.724v2.171H45.605c-0.199,0-0.362-0.162-0.362-0.362v-0.724c0-0.4-0.324-0.724-0.723-0.724H20.456  c-6.754,0-6.007,7.339-8.925,11.546c-1.522,2.198-6.273,2.295-6.273,4.738c0,2.442,5.475-0.109,8.708,4.604  c2.558,3.73-5.295,22.7-8.682,30.449c-0.8,1.831,0.145,3.305,2.145,3.305h19.36c0.999,0,2.01-0.785,2.259-1.752l3.996-15.556  c0.249-0.968,1.26-1.752,2.259-1.752H50.25c4.692,0,8.994-3.789,9.585-8.444l0.772-6.077c0.128-0.992,1.039-1.817,2.038-1.845  c12.465-0.353,23.169-0.838,27.291-1.035c0.997-0.048,1.807-0.899,1.807-1.897v-6.152h2.533c0.4,0,0.724-0.324,0.724-0.723v-5.156  C95,27.074,94.675,26.751,94.276,26.751z M57.453,46.154l-0.489,3.842c-0.415,3.262-3.427,5.915-6.714,5.915H37.855  c-1.998,0-3.215-1.569-2.718-3.505l2.006-7.811c0.249-0.968,1.26-1.752,2.259-1.754c1.031-0.004,2.071-0.011,3.113-0.02  c0.027,0.169,0.05,0.34,0.083,0.508c0.148,0.78,0.378,1.588,0.665,2.341c0.172,0.449,0.362,0.875,0.556,1.249  c0.19,0.382,0.421,0.774,0.735,1.245c0.279,0.407,0.576,0.788,0.888,1.135c0.345,0.381,0.67,0.7,0.98,0.961  c0.314,0.274,0.663,0.538,1.025,0.778c0.335,0.229,0.661,0.408,0.972,0.579c0.018,0.011,0.036,0.02,0.054,0.028l0.199,0.096  c0.226,0.111,0.439,0.214,0.67,0.305c0.078,0.028,0.152,0.06,0.221,0.089c0.154,0.062,0.314,0.127,0.448,0.167l0.547,0.179  c0.113,0.037,0.226,0.054,0.337,0.054c0.013,0,0.025,0,0.04,0c0.585-0.017,1.053-0.496,1.053-1.086  c0.001-0.472-0.298-0.872-0.718-1.022l-0.484-0.218c-0.079-0.032-0.164-0.081-0.258-0.132c-0.079-0.042-0.162-0.087-0.245-0.129  c-0.127-0.065-0.285-0.166-0.453-0.271l-0.172-0.108c-0.233-0.163-0.474-0.332-0.707-0.53c-0.261-0.216-0.497-0.439-0.715-0.675  c-0.21-0.22-0.424-0.479-0.649-0.792c-0.198-0.275-0.387-0.581-0.56-0.905c-0.823-1.535-1.022-3.161-1.071-3.801  c-0.002-0.026,0-0.052-0.002-0.078c2.781-0.034,5.574-0.081,8.335-0.138C56.29,42.604,57.706,44.17,57.453,46.154z"/><text x="0" y="115" fill="#000000" font-size="5px" font-weight="bold" font-family="'Helvetica Neue', Helvetica, Arial-Unicode, Arial, Sans-serif">Created by David Khai</text><text x="0" y="120" fill="#000000" font-size="5px" font-weight="bold" font-family="'Helvetica Neue', Helvetica, Arial-Unicode, Arial, Sans-serif">from the Noun Project</text></svg>