<svg xmlns="http://www.w3.org/2000/svg" xmlns:xlink="http://www.w3.org/1999/xlink" version="1.1" x="0px" y="0px" viewBox="0 0 100 125" enable-background="new 0 0 100 100" xml:space="preserve"><path d="M21.677,28.876c-4.314-1.989-6.208-7.103-4.219-11.425c1.989-4.314,7.096-6.208,11.41-4.219  c4.33,1.981,6.223,7.096,4.243,11.417l21.777-7.528c0.544-0.184,1.161-0.103,1.63,0.228l13.832,9.569  c0.228,0.146,0.411,0.336,0.534,0.558c0.515,0.865,0.237,1.99-0.623,2.509l-4.249,2.561c-0.697,0.412-1.569,0.322-2.156-0.213  l-8.864-8.021l-11.946,5.226l16.312,16.48l15.321,7.742l14.286-12.123c0.631-0.535,1.541-0.579,2.225-0.103l4.072,2.818  c0.102,0.073,0.204,0.169,0.307,0.271c0.668,0.741,0.617,1.901-0.133,2.575L77.247,63.79c-0.55,0.499-1.329,0.616-1.989,0.308  l-21.564-9.921l-2.672,14.69l21.484,9.605c0.844,0.375,1.256,1.328,1.006,2.209l-1.776,5.797c-0.028,0.059-0.05,0.11-0.073,0.168  c-0.388,0.924-1.438,1.373-2.376,0.984L42.633,76.594c-0.703-0.286-1.151-0.998-1.13-1.761l0.925-20.53L28.825,38.49l-4.065,8.24  c-0.367,0.749-1.204,1.152-2.025,0.976L5.989,44.087c-0.132-0.029-0.257-0.066-0.374-0.117c-0.91-0.418-1.322-1.498-0.91-2.415  l2.876-6.435l13.919,3.956l3.889-9.407C24.105,29.676,22.838,29.412,21.677,28.876z M22.191,31.482l-2.011,4.871L6.328,32.414  l-3.678,8.217c-0.924,2.055-0.014,4.47,2.056,5.394c0.256,0.116,0.513,0.206,0.8,0.263l16.752,3.625  c1.842,0.389,3.7-0.514,4.535-2.194l2.547-5.173l10.808,12.547l-0.888,19.636c-0.058,1.711,0.939,3.295,2.518,3.948L68.42,89.715  c2.083,0.865,4.475-0.126,5.334-2.209c0.051-0.119,0.089-0.242,0.139-0.367l1.777-5.797c0.587-1.973-0.367-4.088-2.238-4.925  l-19.879-8.886l1.835-10.089l18.916,8.702c1.489,0.689,3.251,0.412,4.454-0.688l18.199-16.592c1.664-1.518,1.797-4.093,0.27-5.767  c-0.204-0.22-0.439-0.417-0.682-0.601l-4.072-2.818c-1.512-1.057-3.551-0.961-4.969,0.234L74.355,51.065l-13.663-6.897  L46.949,30.292l7.615-3.332l7.771,7.037c1.336,1.218,3.303,1.41,4.843,0.477l4.249-2.561c1.922-1.158,2.539-3.669,1.387-5.599  c-0.293-0.492-0.697-0.924-1.18-1.253l-13.833-9.569c-1.063-0.741-2.429-0.924-3.661-0.507l-18,6.223  c0.104-6.003-4.704-10.942-10.706-11.022c-6.002-0.087-10.948,4.696-11.021,10.706C14.339,25.772,17.525,30.095,22.191,31.482z"/><text x="0" y="115" fill="#000000" font-size="5px" font-weight="bold" font-family="'Helvetica Neue', Helvetica, Arial-Unicode, Arial, Sans-serif">Created by Aldric Rodríguez</text><text x="0" y="120" fill="#000000" font-size="5px" font-weight="bold" font-family="'Helvetica Neue', Helvetica, Arial-Unicode, Arial, Sans-serif">from the Noun Project</text></svg>