<svg xmlns="http://www.w3.org/2000/svg" data-name="Layer 1" viewBox="0 0 512 640" x="0px" y="0px"><path d="M188.62,53.3a5.92,5.92,0,0,0-5.92,5.92v61L98,147.4A117.94,117.94,0,0,0,15.83,260.06V452.78a5.92,5.92,0,1,0,11.84,0V260.06a106.15,106.15,0,0,1,74-101.39l88.8-28.48a5.93,5.93,0,0,0,4.11-5.64V59.22A5.92,5.92,0,0,0,188.62,53.3Z"/><path d="M183.65,386.34c-.63.12-63.08,10.57-95.83-31.65-40.44-52.11,6.91-100.33,8.94-102.36a5.92,5.92,0,0,0-8.34-8.41c-.57.57-56.87,57.56-10,118a89.65,89.65,0,0,0,25.71,22.52c3,4.71,15.07,26.08,15.07,68.31a5.92,5.92,0,1,0,11.84,0c0-28.33-5.08-48.07-9.88-60.42,16,5.71,31.87,7.17,43.89,7.16A126.06,126.06,0,0,0,185.72,398a5.92,5.92,0,1,0-2.07-11.65Z"/><path d="M494.87,393.61,460,350.1a6,6,0,0,1-.24-2.6l1.35-11a85.82,85.82,0,0,0-10.24-52.31,6,6,0,0,0,.21-1.55V260.06A118,118,0,0,0,368.9,147.4l-84.69-27.17v-61a5.92,5.92,0,1,0-11.83,0v65.33a5.93,5.93,0,0,0,4.11,5.64l88.8,28.48a106.16,106.16,0,0,1,73.95,101.39v6.73l-43.63-62.28a18.71,18.71,0,0,0-30.66.38l-2.8-3.86a18.48,18.48,0,0,0-25.09-5l-1.13.72a18.53,18.53,0,0,0-5.56,5.52l-.51-.72A19.8,19.8,0,0,0,297,223.66l2.92,4.63a18.62,18.62,0,0,0-6.8,2.85l-.54.37a18.47,18.47,0,0,0-5.45,24.88l23.19,38.33c-.61,0-1.21.11-1.82.2a21.48,21.48,0,0,0-16,11.52,21.21,21.21,0,0,0,.12,19.67L311.47,362a68.35,68.35,0,0,0,49.23,35.54l8.77,1.43,32.41,43.92a5.92,5.92,0,1,0,9.53-7L377.56,390a5.87,5.87,0,0,0-3.8-2.33l-11.15-1.82A56.4,56.4,0,0,1,322,356.52l-18.79-35.9a9.49,9.49,0,0,1-.06-8.82,9.7,9.7,0,0,1,7.49-5.22,9.59,9.59,0,0,1,9.59,4.43l20,33.06a5.92,5.92,0,0,0,10.13-6.13L330.39,305a1.18,1.18,0,0,1-.11-.19l-33-54.54a6.66,6.66,0,0,1,2-9l.54-.36a6.64,6.64,0,0,1,9.36,2L345,299.7a5.92,5.92,0,0,0,10-6.32l-48-76a8,8,0,0,1,13.2-8.87l52.48,73.4a5.92,5.92,0,1,0,9.63-6.88l-41.89-58.74a6.62,6.62,0,0,1-1.12-5.14,6.54,6.54,0,0,1,3-4.35l1.13-.73a6.66,6.66,0,0,1,9,1.8l19.61,28a16.87,16.87,0,0,0,.92,1.45l22.52,32a5.92,5.92,0,0,0,9.69-6.81l-30.92-44.25a6.45,6.45,0,0,1-.51-4.39,6.85,6.85,0,0,1,12.16-2.49l50.52,72.09A74,74,0,0,1,449.36,335l-1.35,11a18,18,0,0,0,1.38,9.4,5.88,5.88,0,0,0,.8,1.32L485.63,401a5.92,5.92,0,0,0,9.24-7.39Z"/><text x="0" y="527" fill="#000000" font-size="5px" font-weight="bold" font-family="'Helvetica Neue', Helvetica, Arial-Unicode, Arial, Sans-serif">Created by Teewara soontorn</text><text x="0" y="532" fill="#000000" font-size="5px" font-weight="bold" font-family="'Helvetica Neue', Helvetica, Arial-Unicode, Arial, Sans-serif">from the Noun Project</text></svg>