<svg xmlns="http://www.w3.org/2000/svg" xmlns:xlink="http://www.w3.org/1999/xlink" version="1.1" x="0px" y="0px" viewBox="0 0 98 122.5" style="enable-background:new 0 0 98 98;" xml:space="preserve"><path d="M19.479,58.424H7.486c1.93-5.557,5.464-10.381,10.041-13.91L19.479,58.424z M6.643,61.322  c-0.517,2.19-0.792,4.471-0.792,6.814v2.554c0,1.274,1.039,2.313,2.313,2.313h13.36l-1.639-11.681H6.643z M41.619,70.493V59.116  c0-1.235,1.011-2.246,2.246-2.246h46.038c1.235,0,2.246,1.011,2.246,2.246v11.377c0,2.922-2.391,5.313-5.313,5.313H46.932  C44.01,75.806,41.619,73.415,41.619,70.493z M55.029,69.089c0,0.398,0.326,0.724,0.724,0.724h22.26c0.398,0,0.724-0.326,0.724-0.724  v-5.502c0-0.398-0.326-0.724-0.724-0.724h-22.26c-0.398,0-0.724,0.326-0.724,0.724V69.089z M78.636,53.973v-1.404  c0-2.655-2.166-4.821-4.821-4.821H59.952c-2.655,0-4.821,2.165-4.821,4.821v1.404h3.622v-1.404c0-0.656,0.543-1.199,1.199-1.199  h13.863c0.655,0,1.199,0.544,1.199,1.199v1.404H78.636z M86.835,78.704H72.208v2.067c0,0.575-0.472,1.048-1.048,1.048h-8.554  c-0.575,0-1.048-0.471-1.048-1.048v-2.067H46.932c-2.023,0-3.879-0.739-5.312-1.96l0,13.16c0,2.104,1.722,3.826,3.826,3.826h42.877  c2.104,0,3.826-1.722,3.826-3.826l0-13.161C90.714,77.965,88.858,78.704,86.835,78.704z M92.148,10.072v14.867  c0,5.002-2.151,9.196-6.213,12.116l-10.967,7.883c-0.038-0.006-0.077-0.011-0.115-0.017l-10.944-7.866  c-4.062-2.919-6.212-7.114-6.212-12.116V10.072C70.736,2.336,79.109,2.336,92.148,10.072z M88.889,12.81  c0-0.586-0.348-1.091-0.849-1.319c-4.876-2.631-8.969-3.947-13.117-3.95c-4.164-0.003-8.281,1.33-13.202,3.996  c-0.485,0.261-0.761,0.759-0.761,1.273l-0.003,12.13c0,3.942,1.657,7.164,4.857,9.464l8.266,5.941  c0.526,0.379,1.221,0.352,1.712-0.019l8.24-5.922c3.2-2.3,4.858-5.522,4.858-9.464V12.81z M74.923,10.432  c3.432-0.003,6.914,1.08,11.069,3.245v11.262c0,3.028-1.187,5.353-3.647,7.121l-7.422,5.335L67.5,32.06  c-2.46-1.768-3.646-4.094-3.646-7.121V13.677C68.002,11.516,71.484,10.435,74.923,10.432z M79.829,16.153l-7.507,7.507l-2.645-3.328  c-0.64-0.805-1.812-0.939-2.617-0.299c-0.805,0.64-0.939,1.812-0.299,2.617l3.872,4.872c0.662,0.949,2.026,1.078,2.851,0.253  l8.983-8.983c0.729-0.729,0.729-1.91,0-2.639C81.739,15.424,80.558,15.424,79.829,16.153z M20.195,42.675l4.255,30.327h11.41  L25.742,40.027C23.794,40.721,21.936,41.611,20.195,42.675z M38.721,62.076c-0.847-0.48-1.823-0.754-2.861-0.754h-0.554  l3.362,10.957c0.075-0.041,0.148-0.084,0.221-0.129c-0.11-0.535-0.168-1.089-0.168-1.656V62.076z M48.648,41.305  c-1.87-0.911-3.849-1.631-5.909-2.137L32.331,58.424h3.53c1.003,0,1.967,0.171,2.866,0.484c0.105-2.628,2.195-4.757,4.807-4.924  L48.648,41.305z M46.662,53.973h5.572v-1.404c0-2.05,0.814-4.006,2.263-5.455c0.377-0.378,0.79-0.712,1.228-1  c-1.393-1.271-2.907-2.412-4.52-3.404L46.662,53.973z M32.47,52.074l7.284-13.477c-1.335-0.185-2.698-0.283-4.082-0.283  c-2.465,0-4.862,0.305-7.156,0.876L32.47,52.074z M35.672,36.504c8.901,0,16.117-7.216,16.117-16.117  c0-8.901-7.216-16.117-16.117-16.117c-8.901,0-16.117,7.216-16.117,16.117C19.555,29.288,26.771,36.504,35.672,36.504z"/><text x="0" y="113" fill="#000000" font-size="5px" font-weight="bold" font-family="'Helvetica Neue', Helvetica, Arial-Unicode, Arial, Sans-serif">Created by MUHAMMAT SUKIRMAN</text><text x="0" y="118" fill="#000000" font-size="5px" font-weight="bold" font-family="'Helvetica Neue', Helvetica, Arial-Unicode, Arial, Sans-serif">from the Noun Project</text></svg>