<svg xmlns="http://www.w3.org/2000/svg" xmlns:xlink="http://www.w3.org/1999/xlink" version="1.1" x="0px" y="0px" viewBox="0 0 32 40" style="enable-background:new 0 0 32 32;" xml:space="preserve"><g><g><path d="M26.4972324,19.4599342H5.5027666c-1.6997697,0-3.0826335,1.382864-3.0826335,3.0830898    c0,1.69977,1.3828638,3.082634,3.0826335,3.082634h20.9944649c1.69977,0,3.082634-1.382864,3.082634-3.082634    C29.5798664,20.8427982,28.1970024,19.4599342,26.4972324,19.4599342z M5.9516602,23.8305988    c-0.7112103,0-1.287746-0.5765362-1.287746-1.2877445c0-0.7112103,0.5765357-1.2878036,1.287746-1.2878036    s1.2878032,0.5765934,1.2878032,1.2878036C7.2394633,23.2540627,6.6628699,23.8305988,5.9516602,23.8305988z"/></g><g><path d="M15.9492397,14.3148956c1.8136368-2.3756542,1.806778-5.5954762,0.0722523-7.9423203L6.9386764,18.0551205h6.1552062    L15.9492397,14.3148956z"/></g></g><text x="0" y="47" fill="#000000" font-size="5px" font-weight="bold" font-family="'Helvetica Neue', Helvetica, Arial-Unicode, Arial, Sans-serif">Created by Royyan Wijaya</text><text x="0" y="52" fill="#000000" font-size="5px" font-weight="bold" font-family="'Helvetica Neue', Helvetica, Arial-Unicode, Arial, Sans-serif">from the Noun Project</text></svg>