<svg xmlns="http://www.w3.org/2000/svg" xmlns:xlink="http://www.w3.org/1999/xlink" version="1.1" x="0px" y="0px" viewBox="0 0 100 125" enable-background="new 0 0 100 100" xml:space="preserve"><path d="M22.191,31.482l-2.011,4.871L6.328,32.414l-3.678,8.217c-0.924,2.055-0.014,4.47,2.056,5.394  c0.256,0.116,0.513,0.206,0.8,0.263l16.752,3.625c1.842,0.389,3.7-0.514,4.535-2.194l2.547-5.173l10.808,12.547l-0.888,19.636  c-0.058,1.711,0.939,3.295,2.518,3.948L68.42,89.715c2.083,0.865,4.475-0.126,5.334-2.209c0.051-0.119,0.089-0.242,0.139-0.367  l1.777-5.797c0.587-1.973-0.367-4.088-2.238-4.925l-19.879-8.886l1.835-10.089l18.916,8.702c1.489,0.689,3.251,0.412,4.454-0.688  l18.199-16.592c1.664-1.518,1.797-4.093,0.27-5.767c-0.204-0.22-0.439-0.417-0.682-0.601l-4.072-2.818  c-1.512-1.057-3.551-0.961-4.969,0.234L74.355,51.065l-13.663-6.897L46.949,30.292l7.615-3.332l7.771,7.037  c1.336,1.218,3.303,1.41,4.843,0.477l4.249-2.561c1.922-1.158,2.539-3.669,1.387-5.599c-0.293-0.492-0.697-0.924-1.18-1.253  l-13.833-9.569c-1.063-0.741-2.429-0.924-3.661-0.507l-18,6.223c0.104-6.003-4.704-10.942-10.706-11.022  c-6.002-0.087-10.948,4.696-11.021,10.706C14.339,25.772,17.525,30.095,22.191,31.482z"/><text x="0" y="115" fill="#000000" font-size="5px" font-weight="bold" font-family="'Helvetica Neue', Helvetica, Arial-Unicode, Arial, Sans-serif">Created by Aldric Rodríguez</text><text x="0" y="120" fill="#000000" font-size="5px" font-weight="bold" font-family="'Helvetica Neue', Helvetica, Arial-Unicode, Arial, Sans-serif">from the Noun Project</text></svg>